<?xml version="1.0" standalone="no"?>
<!DOCTYPE svg PUBLIC "-//W3C//DTD SVG 20010904//EN"
 "http://www.w3.org/TR/2001/REC-SVG-20010904/DTD/svg10.dtd">
<svg version="1.0" xmlns="http://www.w3.org/2000/svg"
 width="1280.000000pt" height="1064.000000pt" viewBox="0 0 1280.000000 1064.000000"
 preserveAspectRatio="xMidYMid meet">
<metadata>
Created by potrace 1.15, written by Peter Selinger 2001-2017
</metadata>
<g transform="translate(0.000000,1064.000000) scale(0.100000,-0.100000)"
fill="#FFFFFF" stroke="none">
<path d="M5686 9069 c-26 -23 -26 -26 -17 -84 30 -195 62 -411 71 -485 17
-135 40 -267 66 -380 14 -58 29 -127 34 -155 5 -27 19 -86 30 -130 21 -82 31
-144 56 -350 22 -185 25 -198 49 -227 23 -27 45 -104 45 -156 0 -15 4 -42 10
-61 5 -18 10 -70 11 -115 0 -44 5 -99 9 -121 5 -22 10 -98 11 -170 3 -150 14
-188 56 -183 14 2 35 14 45 28 18 24 18 35 8 180 -19 278 -34 429 -51 527 -6
32 -24 139 -39 238 -16 99 -33 200 -38 225 -5 25 -22 117 -37 205 -15 88 -36
192 -46 230 -11 39 -26 104 -34 145 -7 41 -20 100 -28 130 -8 31 -18 104 -22
163 -6 83 -11 109 -23 116 -23 13 -42 122 -50 288 -4 78 -10 144 -13 148 -4 3
-22 8 -41 11 -27 5 -40 1 -62 -17z"/>
<path d="M8290 8895 l-24 -25 21 -28 c16 -21 28 -27 54 -25 29 1 59 23 59 44
0 16 -37 49 -60 54 -19 5 -32 0 -50 -20z"/>
<path d="M9109 8858 c-9 -7 -31 -40 -49 -73 -42 -76 -121 -211 -172 -292 -21
-34 -38 -65 -38 -67 0 -3 -13 -27 -29 -54 -143 -243 -401 -743 -458 -887 -19
-49 -44 -110 -55 -135 -31 -68 -118 -329 -118 -354 0 -51 57 -63 87 -18 10 15
32 65 47 112 16 47 39 111 52 142 13 32 31 79 40 105 16 46 41 104 89 208 12
28 31 68 41 90 33 76 94 200 117 240 24 40 107 194 135 250 8 17 23 41 32 55
9 14 33 54 52 90 20 36 49 90 65 120 17 30 39 69 49 86 11 17 32 53 48 80 17
27 60 95 98 152 63 97 79 134 60 146 -22 13 -78 16 -93 4z"/>
<path d="M6576 8479 c-22 -32 -20 -46 8 -64 37 -24 79 -16 90 18 12 33 -4 54
-50 63 -26 5 -35 2 -48 -17z"/>
<path d="M9735 8426 c-19 -28 -9 -58 26 -76 25 -14 50 -6 78 24 l21 23 -21 26
c-28 36 -82 38 -104 3z"/>
<path d="M7376 8409 c-21 -25 -26 -41 -26 -87 0 -49 -14 -150 -51 -357 -15
-87 -56 -283 -85 -406 -27 -116 -44 -212 -48 -274 -2 -22 -8 -56 -15 -76 -6
-19 -12 -80 -14 -134 -2 -95 -1 -98 24 -117 22 -16 30 -18 48 -9 27 15 51 72
51 123 0 55 27 230 66 428 9 47 22 121 30 165 7 44 18 101 24 128 22 103 29
137 53 277 32 185 42 307 28 343 -15 38 -51 36 -85 -4z"/>
<path d="M7980 8148 c-25 -27 -25 -40 -2 -61 36 -33 102 -14 102 28 0 26 -33
55 -62 55 -9 0 -26 -10 -38 -22z"/>
<path d="M5016 8044 c-25 -24 -19 -52 15 -73 35 -21 65 -17 80 10 12 23 -2 53
-31 69 -26 14 -46 13 -64 -6z"/>
<path d="M10465 7940 c-52 -14 -331 -207 -399 -276 -12 -12 -57 -52 -101 -90
-90 -78 -381 -367 -437 -434 -20 -25 -60 -70 -88 -100 -117 -126 -158 -215
-115 -246 45 -33 49 -30 204 161 54 66 122 145 151 175 29 30 80 84 114 119
33 35 68 78 76 95 8 17 21 31 27 31 20 0 53 33 53 53 0 18 78 102 95 102 13 1
81 65 94 89 6 11 24 22 40 26 16 3 41 17 56 31 14 13 28 24 30 24 3 0 31 20
64 45 32 25 68 45 79 45 10 0 27 9 37 20 10 11 25 20 34 20 31 1 53 28 56 68
3 37 1 40 -24 44 -14 2 -35 1 -46 -2z"/>
<path d="M6539 7679 c-24 -46 26 -88 80 -68 33 13 37 37 11 65 -30 31 -75 32
-91 3z"/>
<path d="M9092 7597 c-27 -29 -27 -34 1 -58 48 -40 116 -13 96 39 -18 48 -62
57 -97 19z"/>
<path d="M10982 7387 c-29 -31 -28 -40 9 -71 35 -30 56 -32 87 -10 28 19 28
44 1 78 -26 33 -68 34 -97 3z"/>
<path d="M5305 7346 c-19 -28 -12 -50 21 -65 31 -14 84 10 84 38 0 48 -78 69
-105 27z"/>
<path d="M7610 7257 c-36 -18 -39 -63 -5 -79 49 -22 121 27 92 65 -17 23 -58
29 -87 14z"/>
<path d="M4583 7209 c-18 -12 -33 -27 -33 -34 0 -8 25 -42 56 -77 49 -57 131
-174 267 -385 26 -40 47 -75 47 -79 0 -20 155 -208 233 -283 83 -79 103 -88
136 -64 47 36 40 61 -41 145 -40 41 -88 95 -105 119 -18 24 -53 69 -78 99 -24
30 -70 98 -100 150 -31 52 -72 115 -91 140 -19 25 -37 52 -41 60 -13 29 -95
135 -140 183 -50 53 -64 56 -110 26z"/>
<path d="M8703 7060 c-36 -15 -40 -50 -9 -77 34 -29 70 -29 90 -1 21 30 20 44
-4 68 -21 21 -42 24 -77 10z"/>
<path d="M6521 7011 c-17 -16 -31 -33 -31 -38 1 -30 48 -55 85 -45 45 12 52
34 26 76 -27 44 -40 45 -80 7z"/>
<path d="M10282 6913 c-12 -3 -30 -16 -39 -29 -15 -24 -15 -26 12 -54 35 -37
58 -38 91 -5 24 24 26 56 5 76 -10 11 -44 16 -69 12z"/>
<path d="M4046 6854 c-22 -21 -20 -41 5 -54 16 -9 26 -8 45 5 29 19 31 41 5
55 -27 14 -37 13 -55 -6z"/>
<path d="M7156 6857 c-10 -7 -22 -31 -26 -53 -5 -21 -29 -106 -55 -188 -25
-83 -64 -220 -85 -305 -21 -86 -61 -223 -88 -306 -85 -256 -125 -386 -142
-455 -5 -19 -14 -53 -20 -75 -22 -78 -28 -105 -84 -354 -20 -90 -42 -173 -47
-183 -10 -18 -13 -16 -39 25 -49 78 -227 311 -271 356 -14 14 -56 62 -94 106
-37 44 -76 86 -86 93 -10 7 -31 26 -48 42 -54 54 -100 37 -130 -50 -11 -30
-25 -56 -33 -58 -7 -1 -30 21 -51 50 -60 86 -127 187 -127 192 0 13 -92 125
-144 176 -31 30 -56 60 -56 66 0 20 -50 54 -80 54 -15 0 -36 -10 -50 -25 -14
-15 -35 -25 -51 -25 -14 0 -32 -7 -39 -15 -16 -19 -47 -131 -76 -278 -13 -66
-30 -144 -38 -175 -8 -32 -24 -97 -36 -147 -12 -49 -37 -148 -56 -220 -29
-110 -91 -373 -126 -535 -6 -25 -14 -61 -18 -80 -5 -19 -16 -66 -25 -105 -9
-38 -20 -74 -25 -79 -6 -6 -27 0 -57 16 -27 14 -75 40 -108 58 -33 17 -64 35
-70 40 -5 4 -86 47 -180 95 -93 48 -199 104 -235 123 -36 20 -105 55 -154 79
-98 48 -162 90 -215 140 -26 24 -44 33 -70 33 -52 0 -71 -23 -65 -79 6 -54 24
-122 36 -135 4 -6 8 -25 8 -43 0 -19 9 -64 21 -101 44 -146 94 -304 139 -442
26 -80 60 -185 75 -235 16 -49 37 -101 47 -113 9 -13 29 -63 44 -110 14 -48
30 -97 35 -110 5 -13 9 -35 9 -50 0 -28 33 -152 49 -187 5 -11 26 -78 46 -150
20 -71 45 -161 56 -199 17 -56 18 -74 9 -97 -13 -30 -7 -49 16 -49 15 0 35
-39 53 -105 6 -22 27 -89 46 -150 19 -60 35 -118 35 -127 0 -9 5 -20 10 -23 6
-3 10 -16 10 -28 0 -24 21 -91 69 -227 17 -47 31 -91 31 -98 0 -8 6 -28 14
-45 7 -18 22 -59 31 -92 10 -33 22 -67 26 -75 4 -8 18 -42 30 -75 13 -33 27
-64 31 -70 4 -5 8 -17 8 -27 0 -12 18 -27 52 -43 56 -27 83 -30 122 -16 18 8
34 5 65 -10 22 -10 44 -19 49 -19 5 0 34 -11 63 -24 30 -13 92 -29 139 -36
102 -14 512 -15 589 0 29 5 83 10 120 10 36 0 102 5 146 10 44 6 148 19 230
30 149 19 223 32 405 71 52 12 127 28 165 36 74 16 222 59 340 99 39 13 76 24
83 24 7 0 32 9 54 20 23 11 46 20 51 20 5 0 57 23 116 51 58 28 132 60 165 70
32 10 86 32 120 48 33 17 81 37 106 45 25 8 88 36 140 62 52 25 133 64 180 85
47 22 94 45 105 51 46 27 123 66 145 73 12 4 48 26 79 50 31 23 79 55 106 70
63 36 113 72 146 105 25 24 78 72 199 178 30 27 84 71 120 98 206 156 432 378
566 554 27 36 77 92 111 124 35 33 63 64 63 70 0 5 -8 27 -17 48 -14 31 -22
38 -44 38 -15 0 -34 -8 -41 -17 -14 -18 -403 -401 -698 -689 -258 -250 -406
-369 -581 -462 -30 -16 -94 -53 -144 -82 -107 -62 -382 -197 -492 -241 -75
-30 -211 -78 -283 -100 -19 -6 -44 -14 -55 -19 -11 -5 -65 -23 -120 -39 -55
-16 -136 -41 -180 -54 -44 -14 -116 -35 -160 -46 -44 -11 -123 -32 -175 -47
-52 -14 -117 -33 -145 -41 -27 -8 -72 -18 -100 -23 -53 -11 -103 -22 -175 -40
-25 -6 -92 -13 -150 -15 -97 -3 -283 -25 -355 -42 -16 -4 -33 -6 -36 -5 -3 0
-62 4 -130 8 -68 3 -132 10 -141 15 -9 5 -36 9 -60 9 -24 0 -79 4 -123 10 -44
5 -161 14 -260 20 -99 5 -206 16 -238 25 -32 8 -66 15 -76 15 -26 0 -45 27
-64 89 -25 80 -25 81 36 81 147 0 359 110 349 180 -1 8 11 21 27 28 30 13 46
37 35 53 -3 5 -13 5 -24 -1 -10 -5 -36 -10 -58 -10 -47 0 -209 -50 -310 -96
-61 -28 -77 -31 -97 -22 -27 12 -53 64 -39 78 11 11 103 68 174 108 149 84
135 102 -27 37 -152 -62 -170 -63 -201 -7 -31 56 -20 72 54 72 79 0 138 17
244 69 71 35 99 55 110 77 9 17 26 44 39 60 l23 29 -22 3 c-11 2 -27 -1 -34
-7 -18 -15 -152 -70 -201 -82 -114 -30 -174 -38 -228 -32 -31 3 -60 10 -63 15
-9 14 16 38 40 38 11 0 35 7 51 16 17 9 69 37 118 61 79 39 99 58 81 76 -4 3
-20 -1 -37 -10 -37 -19 -232 -73 -264 -73 -28 0 -45 29 -32 53 6 9 17 17 25
17 20 0 174 75 242 117 29 18 55 33 58 33 3 0 33 19 67 41 34 23 71 45 82 49
23 9 142 96 151 112 18 28 -19 24 -86 -12 -41 -22 -82 -39 -90 -40 -9 0 -92
-39 -185 -86 -201 -101 -277 -129 -305 -114 -11 6 -20 16 -20 23 0 7 -3 22 -6
35 -6 19 0 25 42 43 27 12 54 28 62 35 7 8 20 14 27 14 17 0 75 48 75 62 0 14
-72 1 -158 -28 -59 -21 -76 -23 -88 -13 -29 24 -10 41 81 70 113 37 162 61
299 148 115 74 146 101 146 126 0 20 -12 19 -41 -4 -14 -10 -64 -40 -113 -65
-84 -44 -126 -56 -126 -37 0 21 -35 20 -69 -2 -56 -36 -154 -67 -215 -67 -39
0 -43 7 -81 145 -15 55 -32 111 -37 125 -6 14 -14 43 -18 65 -5 22 -16 67 -25
100 -9 33 -23 87 -32 120 -8 33 -28 92 -44 130 -15 39 -38 102 -50 140 -12 39
-27 88 -34 110 -7 22 -23 83 -35 135 -12 52 -26 104 -30 115 -5 11 -11 31 -14
45 -26 128 -41 173 -63 187 -13 8 -23 22 -23 29 0 17 4 17 28 5 9 -6 49 -24
87 -42 39 -17 90 -46 115 -64 49 -35 99 -55 138 -55 26 0 57 -14 338 -151 100
-49 188 -89 195 -89 8 0 37 -18 64 -40 60 -47 88 -61 136 -63 47 -3 185 -86
257 -155 42 -41 61 -52 81 -50 26 3 27 5 49 93 16 63 78 223 121 310 64 132
101 213 101 225 0 6 6 21 14 33 13 20 52 107 108 242 11 28 24 58 29 67 5 10
9 23 9 29 0 6 13 37 29 68 16 31 32 72 36 91 4 19 14 45 22 58 8 13 22 49 32
80 25 78 79 189 94 195 13 5 63 -51 132 -148 22 -31 56 -76 75 -98 19 -23 40
-49 45 -58 6 -9 31 -45 58 -80 26 -34 47 -66 47 -70 0 -7 125 -195 205 -309
21 -30 73 -97 114 -149 42 -51 82 -103 90 -115 8 -13 34 -33 59 -46 l44 -24
17 21 c10 11 23 47 30 79 7 33 17 68 22 79 23 56 40 123 48 198 5 45 15 96 21
112 11 28 27 101 50 220 5 28 16 77 26 110 9 33 20 76 24 95 9 40 66 260 80
305 4 17 15 53 23 80 8 28 22 77 31 110 9 33 19 67 23 75 3 8 20 55 37 104 17
49 36 91 41 93 10 3 52 -50 169 -213 23 -33 104 -131 180 -217 75 -86 136
-160 136 -164 0 -4 15 -23 34 -43 19 -19 47 -53 62 -76 16 -22 48 -67 72 -100
69 -95 90 -130 97 -162 8 -38 20 -48 66 -57 31 -6 39 -3 56 19 11 14 28 49 37
78 10 29 23 67 31 83 7 17 30 70 50 118 20 49 44 105 55 125 34 68 89 197 95
225 4 15 15 32 25 37 11 6 20 27 24 60 4 28 11 61 16 73 5 12 30 76 55 142 95
247 110 282 163 385 30 58 63 121 73 141 17 33 53 57 63 41 2 -4 7 -41 10 -82
6 -65 37 -221 66 -330 25 -94 53 -208 57 -230 17 -97 69 -270 133 -440 17 -47
37 -98 42 -115 6 -16 15 -35 19 -41 14 -18 69 -178 69 -201 0 -12 -11 -46 -24
-75 -23 -53 -35 -66 -266 -286 -67 -64 -82 -84 -73 -93 10 -10 18 -10 40 0 16
7 48 20 72 28 74 25 112 55 210 167 51 58 100 106 107 106 14 0 34 -38 34 -65
0 -16 -126 -140 -189 -187 -23 -16 -41 -34 -41 -39 0 -24 51 -3 137 57 52 36
101 68 108 71 15 5 45 -45 45 -76 0 -11 -8 -33 -17 -50 -25 -43 -193 -204
-293 -281 -90 -69 -108 -83 -148 -116 l-26 -21 38 -13 c54 -18 119 -8 168 26
22 16 48 34 57 39 52 32 135 104 199 171 46 48 77 73 83 67 5 -5 14 -25 19
-44 10 -34 10 -34 -95 -137 -96 -93 -115 -122 -83 -122 18 0 131 76 163 110
34 36 52 38 60 8 3 -13 11 -40 17 -61 14 -45 2 -65 -30 -48 -23 12 -52 -13
-52 -47 0 -37 -43 -95 -154 -206 -75 -75 -129 -120 -175 -145 -89 -48 -125
-77 -117 -96 9 -24 48 -18 154 22 92 35 114 49 246 157 21 17 67 68 103 114
36 45 69 80 74 76 15 -9 10 -34 -11 -61 -23 -30 -18 -43 15 -43 l24 0 -25 -37
c-56 -84 -140 -166 -286 -280 -141 -111 -218 -186 -218 -212 0 -19 56 -12 75
9 10 11 24 20 32 20 11 0 111 66 150 100 7 5 15 10 18 10 3 0 42 29 86 65 43
35 92 73 107 82 15 10 38 29 52 43 73 72 88 82 110 75 13 -4 30 -25 41 -49 22
-51 55 -70 90 -52 30 14 35 48 16 95 -9 20 -25 68 -37 106 -12 39 -30 86 -40
105 -10 19 -24 53 -32 75 -9 22 -25 65 -38 95 -12 30 -28 73 -35 95 -12 40
-15 50 -55 140 -12 28 -37 91 -55 140 -17 50 -42 111 -54 137 -11 26 -21 51
-21 56 0 5 -6 22 -14 38 -31 66 -47 105 -90 229 -48 136 -66 190 -74 215 -2 8
-24 71 -49 140 -73 207 -163 481 -163 494 0 7 -9 25 -20 39 -11 14 -20 39 -20
55 0 17 -4 34 -10 37 -5 3 -10 21 -10 40 0 19 -5 46 -11 62 -11 29 -15 47 -42
188 -19 96 -40 395 -32 451 7 49 -11 84 -48 97 -22 7 -32 5 -49 -9 -42 -39
-112 -141 -163 -238 -29 -56 -68 -131 -88 -167 -19 -36 -38 -77 -42 -90 -4
-13 -19 -49 -32 -79 -14 -30 -36 -86 -50 -125 -65 -186 -117 -305 -132 -305
-18 1 -97 72 -301 273 -80 79 -195 187 -255 239 -61 53 -124 111 -140 130 -17
19 -38 39 -48 45 -11 5 -60 50 -110 100 -93 90 -217 191 -334 271 -36 25 -80
28 -107 9z m124 -329 c0 -15 -41 -8 -47 8 -9 24 19 37 35 17 6 -9 12 -20 12
-25z m160 -27 c0 -5 60 -72 133 -148 73 -76 150 -158 171 -183 145 -168 315
-344 439 -457 5 -5 46 -48 92 -97 l83 -90 -22 -50 c-74 -166 -146 -292 -158
-276 -84 110 -162 200 -178 205 -11 3 -20 10 -20 15 0 5 -9 11 -19 15 -11 3
-31 25 -45 48 -13 23 -52 71 -85 107 -36 38 -60 74 -61 88 0 12 -6 22 -12 22
-15 0 -131 124 -178 188 -37 52 -76 116 -95 160 -9 17 -20 32 -25 32 -6 0 -15
11 -20 25 -22 58 -116 59 -143 2 -20 -42 -64 -159 -84 -222 -9 -27 -19 -59
-23 -70 -23 -60 -80 -244 -99 -320 -5 -22 -15 -58 -21 -80 -6 -22 -15 -56 -20
-75 -5 -19 -20 -75 -35 -125 -38 -127 -50 -176 -75 -290 -31 -147 -66 -265
-83 -282 -4 -3 -7 -15 -7 -25 0 -31 -37 -21 -60 17 -12 19 -25 35 -29 35 -11
0 -51 88 -51 112 0 12 8 48 17 81 18 57 18 58 53 56 51 -3 90 19 90 49 0 31
-26 51 -64 52 -28 0 -29 1 -23 43 10 75 24 100 50 93 31 -7 99 11 115 32 6 9
12 29 12 45 0 17 8 36 22 46 25 21 19 51 -10 51 -11 0 -43 -10 -71 -22 -58
-24 -77 -17 -58 22 9 17 29 29 74 42 59 17 63 21 74 58 11 36 10 42 -7 55 -13
11 -32 14 -62 10 l-44 -5 7 43 c8 50 32 132 48 166 12 24 40 39 112 61 53 15
103 41 109 56 8 22 -19 33 -92 40 -47 5 -72 11 -72 19 0 21 50 149 63 161 7 6
46 23 87 38 125 45 145 69 97 115 -20 18 -28 20 -51 11 -15 -5 -41 -10 -57
-10 -35 0 -35 4 7 106 23 56 31 65 86 98 34 20 69 36 79 36 11 0 24 9 31 20 7
11 22 20 34 20 11 0 29 9 39 20 19 21 35 26 35 11z m-1973 -759 c10 -16 36
-57 58 -91 22 -34 77 -119 123 -189 94 -142 123 -196 142 -264 l12 -47 -72
-178 c-40 -98 -86 -206 -102 -241 -15 -34 -28 -65 -28 -67 0 -3 -21 -51 -46
-107 -26 -57 -69 -157 -96 -223 -90 -219 -99 -236 -117 -243 -8 -3 -33 5 -55
17 -23 13 -72 39 -109 58 -55 28 -66 37 -57 48 6 8 25 15 43 17 24 2 32 9 38
30 5 18 3 31 -7 39 -8 6 -11 15 -8 20 3 5 0 17 -6 28 -8 16 -17 19 -45 14 -40
-6 -40 -7 -23 83 l11 63 46 14 c25 8 57 17 71 21 15 3 36 23 52 48 38 59 25
70 -67 58 -38 -5 -72 -7 -77 -4 -7 5 9 63 23 78 11 13 79 36 105 36 28 0 54
31 57 66 l2 29 -65 0 -65 0 3 44 c4 65 13 75 81 90 75 17 102 44 92 93 -7 31
-9 33 -46 30 -21 -2 -47 -8 -57 -13 -26 -14 -41 -1 -33 30 10 40 26 53 55 47
15 -3 36 1 46 8 10 7 31 16 45 19 19 5 28 15 32 36 3 16 14 36 23 46 41 40
-31 64 -123 41 -31 -7 -33 -6 -33 20 0 16 7 47 16 69 14 38 19 42 71 54 83 19
124 41 118 63 -4 9 -1 27 5 39 17 31 -10 57 -42 42 -51 -25 -91 -34 -99 -22
-7 11 36 142 54 167 15 20 34 14 54 -16z m2920 -77 c8 -23 -4 -30 -22 -12 -19
20 -19 27 0 27 9 0 18 -7 22 -15z m-3097 -4020 c0 -8 -4 -15 -10 -15 -5 0 -10
7 -10 15 0 8 5 15 10 15 6 0 10 -7 10 -15z"/>
<path d="M3120 6741 c-14 -4 -25 -12 -24 -19 1 -7 2 -20 3 -29 1 -17 106 -93
129 -93 20 0 176 -82 257 -136 67 -44 138 -98 325 -251 159 -129 460 -425 532
-523 61 -85 98 -151 107 -195 6 -25 12 -31 40 -33 27 -3 39 2 57 25 30 36 30
55 0 90 -13 15 -35 53 -50 83 -28 58 -164 224 -243 297 -27 24 -67 61 -90 83
-23 22 -48 40 -55 40 -18 0 -108 86 -108 103 0 18 -72 81 -122 108 -21 11 -38
23 -38 28 0 5 -13 16 -29 24 -36 18 -97 66 -165 130 -29 26 -68 58 -88 70 -20
12 -62 40 -94 61 -33 22 -93 55 -134 74 -41 19 -86 43 -99 53 -24 19 -65 23
-111 10z"/>
<path d="M5614 6675 c-33 -33 -29 -66 9 -79 66 -24 117 52 58 87 -37 22 -37
22 -67 -8z"/>
<path d="M11610 6673 c-8 -2 -24 -9 -35 -14 -25 -11 -166 -59 -305 -104 -373
-120 -846 -291 -875 -317 -5 -4 -15 -8 -23 -8 -7 0 -63 -24 -125 -54 -62 -29
-132 -63 -157 -74 -90 -40 -166 -75 -220 -102 -30 -15 -71 -35 -90 -44 -62
-30 -65 -33 -68 -55 -2 -13 4 -31 14 -42 29 -32 72 -25 169 28 62 34 255 123
266 123 14 0 70 40 115 82 18 16 40 29 50 28 34 -4 43 0 76 28 54 46 124 69
112 37 -11 -28 21 -16 39 15 10 17 31 37 46 44 42 22 134 56 151 56 13 0 65
18 190 65 96 36 120 44 181 64 37 11 77 21 89 21 12 0 39 9 59 20 51 28 229
84 271 85 103 3 120 5 120 19 0 7 7 19 15 26 39 33 -12 90 -65 73z"/>
<path d="M4446 6464 c-21 -21 -20 -31 5 -44 31 -17 74 13 59 40 -13 24 -43 26
-64 4z"/>
<path d="M9540 6333 c-23 -9 -60 -45 -60 -59 0 -20 50 -54 80 -54 36 0 49 17
52 71 3 43 2 44 -27 46 -16 1 -37 -1 -45 -4z"/>
<path d="M2769 6085 c-56 -30 -43 -75 21 -75 25 0 40 5 44 16 11 29 6 53 -13
64 -24 12 -20 12 -52 -5z"/>
<path d="M4802 5952 c-28 -22 -20 -52 13 -52 22 0 55 28 55 47 0 10 -23 23
-38 23 -4 0 -17 -8 -30 -18z"/>
<path d="M3322 5769 c-18 -7 -23 -15 -20 -35 5 -40 41 -49 75 -20 27 24 28 24
9 45 -21 23 -29 24 -64 10z"/>
<path d="M3927 5362 c-21 -23 -21 -39 -3 -58 19 -18 31 -18 61 2 29 19 31 36
9 58 -21 21 -47 20 -67 -2z"/>
<path d="M2777 5253 c-4 -3 -7 -21 -7 -40 0 -56 5 -59 570 -244 31 -10 101
-43 212 -100 48 -25 53 -24 77 8 25 31 20 58 -18 91 -30 27 -218 122 -241 122
-16 0 -157 43 -413 126 -136 44 -168 50 -180 37z"/>
<path d="M1847 4665 c-42 -14 -68 -41 -64 -65 3 -19 66 -40 92 -30 23 8 50 71
42 95 -8 18 -20 18 -70 0z"/>
<path d="M2499 4549 c-24 -24 -22 -36 13 -62 21 -15 30 -17 47 -8 33 18 42 44
25 69 -19 28 -58 28 -85 1z"/>
<path d="M3250 4495 c-27 -29 -21 -52 17 -66 29 -11 85 24 76 48 -17 46 -59
54 -93 18z"/>
<path d="M3160 4030 c-25 -5 -87 -15 -139 -24 -52 -9 -111 -23 -130 -32 -20
-10 -49 -21 -66 -25 -16 -4 -64 -16 -105 -28 -41 -11 -87 -21 -101 -21 -15 0
-32 -7 -39 -15 -7 -8 -26 -19 -44 -23 -40 -12 -301 -108 -346 -128 -19 -9 -78
-32 -130 -51 -96 -34 -276 -118 -336 -157 -34 -22 -43 -53 -22 -74 17 -17 42
-15 69 6 13 10 62 31 109 46 47 16 90 32 95 36 6 4 19 10 30 13 26 7 145 52
187 70 18 8 53 22 78 32 25 10 59 23 75 30 17 7 53 20 80 29 28 9 97 32 155
52 208 71 413 122 600 150 111 16 125 23 135 66 5 20 2 29 -12 36 -28 15 -94
20 -143 12z"/>
</g>
</svg>
